<?xml version="1.0" encoding="utf-8"?>
<!-- Generator: Adobe Illustrator 22.1.0, SVG Export Plug-In . SVG Version: 6.00 Build 0)  -->
<svg version="1.1" id="Layer_1" xmlns="http://www.w3.org/2000/svg" xmlns:xlink="http://www.w3.org/1999/xlink" x="0px" y="0px"
	 viewBox="0 0 218 211.7" style="enable-background:new 0 0 218 211.7;" xml:space="preserve">
<style type="text/css">
	.st0{fill:#6920B7;}
	.st1{fill:#FFE888;}
	.st2{fill:#EABA5C;}
	.st3{fill:#44392E;}
	.st4{fill:#FFFFFF;}
</style>
<g>
	<ellipse id="XMLID_1_" class="st0" cx="109" cy="105.8" rx="109" ry="105.8"/>
	<path class="st1" d="M150.2,167.1c7.7-6.9,14.7-14.5,21.1-22.6c4.3,1.2,8.9,0.8,12.9-1.1c-3.6-3-6.7-6.5-9.2-10.4
		c5.8,2.2,12.3,1.6,17.6-1.6c0,0-16.8-9.3-19.2-16.9C164.5,86.8,164,89,164,89c5.2-13.4,10.4-33.5,6.3-38.5
		c-5.2-6.4-11.3,3.7-26.7,14.1c0,0-9.2-8.8-34-8.8c-11.5,0.6-22.7,3.6-33,8.9c-7.1-5.2-11.6-10-17.2-13.2C50.9,46.3,46.9,51,50,61.9
		c1.3,4.4,3.3,14,5.2,22.5c1.4,6.1,0,4.7-5.2,23.6c-1.8,4.6-4,8.9-6.7,13c-3.8,5.2-9.3,8.9-15.6,10.4c5.3,3.2,11.8,3.8,17.6,1.6
		c-2.5,3.9-5.7,7.4-9.2,10.4c4,1.9,8.6,2.3,12.9,1.1c4.3,9.3,11.6,16.8,20.6,21.6c0,0,10.4,12.2,40.3,12.2
		C136.8,178.3,150.2,167.1,150.2,167.1z"/>
	<path class="st2" d="M85.8,60.2c0,0-30.3,28.7-26.3,67.8c4.4,43,50.3,50.4,50.3,50.4c-24.6-0.4-47.3-13.1-60.5-33.8
		c0,0-8.7,3.1-12.9-1.1c0,0,7.8-5.2,9.2-10.4c-5.8,2.4-12.4,1.8-17.6-1.6c7.5-2,13.9-6.9,17.8-13.8C55.7,101,56,73.3,85.8,60.2z"/>
	<path class="st2" d="M71.9,70c0,0-6-5.2-12.9-10.4c-5.2-4-7.8-4.1-9.2,0.4l6.4,26.7l6-3.6l4.8-7.9L71.9,70z M148.9,70
		c0,0,6-5.2,12.9-10.4c5.2-4,7.8-4.1,9.2,0.4l-6.4,26.9l-5.8-3.8l-4.8-7.9L148.9,70z"/>
	<g>
		<path class="st3" d="M100.5,123.2c-0.3-0.9-0.1-1.9,0.6-2.5c2.7-2.5,6.2-3.7,9.9-3.5c3.5-0.3,6.9,0.9,9.4,3.3
			c0.6,0.7,0.8,1.7,0.4,2.6c-0.5,1.2-1.6,1.9-2.9,2c-2-0.1-4,0.9-5.2,2.5l-0.3,0.4c-1,1.1-2.7,1.1-3.7,0.2c-0.1,0-0.1-0.1-0.2-0.2
			c0,0-1.1-2-5.2-2.3c-1.3-0.1-2.3-1-2.8-2.2L100.5,123.2z M94.7,127.8c-7.9-1.8-16-1.5-23.8,0.7c-7.8,2.4-14.6,7.3-19.4,13.9
			c4.4-7,11.1-12.4,18.9-15.3c7.9-2.8,16.4-3.5,24.7-2.1c0.8,0.1,1.3,0.9,1.2,1.7c-0.1,0.8-0.8,1.3-1.6,1.2
			C94.8,127.8,94.8,127.8,94.7,127.8L94.7,127.8z"/>
		<path class="st3" d="M95,131.3c-5.3-0.6-10.8,0.4-15.6,2.8c-4.6,3.1-7.6,8-8.3,13.4c0.3-2.8,1-5.5,2.1-8.1
			c1.2-2.6,2.9-4.8,5.2-6.5c4.9-3,10.6-4.5,16.4-4.4c0.7-0.1,1.4,0.5,1.4,1.2c0,0,0,0.1,0,0.1C96.3,130.6,95.7,131.3,95,131.3
			L95,131.3z M125.9,124.9c8.3-1.4,16.8-0.6,24.7,2.1c7.8,2.9,14.5,8.3,18.9,15.3c-4.7-6.7-11.5-11.6-19.4-13.9
			c-7.7-2.2-15.9-2.5-23.7-0.7c-0.7,0.3-1.6-0.1-1.9-0.8c-0.3-0.7,0.1-1.6,0.8-1.9C125.5,125,125.7,125,125.9,124.9L125.9,124.9z"/>
		<path class="st3" d="M126.2,128.5c5.8-0.1,11.5,1.4,16.4,4.4c2.3,1.7,4.1,3.9,5.2,6.5c1.1,2.6,1.8,5.3,2.1,8.1
			c-0.6-5.5-3.7-10.4-8.3-13.4c-4.8-2.4-10.2-3.4-15.6-2.8c-0.8,0-1.5-0.7-1.5-1.6c0,0,0,0,0,0c0-0.8,0.6-1.4,1.3-1.5c0,0,0,0,0.1,0
			L126.2,128.5z"/>
	</g>
	<path class="st3" d="M110.4,180c-36.6,0-57.9-27.9-61.8-33.6c-4.4,1-8.9,0.4-13-1.5c-0.5-0.2-0.8-0.7-0.9-1.3
		c-0.1-0.6,0.2-1.1,0.6-1.5c2.3-1.9,4.4-4.1,6.3-6.4c-5,0.7-10.1-0.3-14.5-2.9c-0.6-0.3-0.9-1-0.8-1.7c0.1-0.7,0.6-1.2,1.2-1.3
		c7.2-1.7,13.3-6.4,16.7-12.9c1.9-3.7,4.1-9.1,6.4-14.7c2.7-6.6,5.4-13.3,7.9-17.8c11.6-21.2,26.9-30.2,51.2-30.2
		c22-1.3,42.7,10.7,52.6,30.5c2.4,4.4,5.2,11.2,7.9,17.8c2.3,5.7,4.5,11,6.4,14.7c3.4,6.5,9.5,11.2,16.7,12.9
		c0.6,0.2,1.1,0.7,1.2,1.3c0.1,0.7-0.2,1.3-0.8,1.7c-4.3,2.6-9.5,3.7-14.5,2.9c1.9,2.3,4,4.5,6.3,6.4c0.4,0.4,0.6,0.9,0.6,1.5
		c-0.1,0.6-0.4,1-0.9,1.3c-4,1.9-8.5,2.5-12.9,1.5C168.4,152.3,147,180,110.4,180z M49.3,142.9c0.6,0,1.1,0.3,1.4,0.8
		c0.2,0.3,21,33,59.7,33c38.7,0,59.7-32.5,59.9-32.8c0.4-0.6,1.1-0.9,1.8-0.7c3.1,0.9,6.3,0.8,9.3-0.1c-2.9-2.7-5.4-5.7-7.5-8.9
		c-0.4-0.6-0.3-1.4,0.1-1.9c0.5-0.6,1.2-0.7,1.9-0.5c4,1.5,8.5,1.6,12.5,0.2c-6.3-2.5-11.5-7.2-14.7-13.3c-2-3.9-4.2-9.3-6.5-15
		c-2.6-6.5-5.4-13.2-7.7-17.5c-9.4-18.7-28.8-29.9-49.6-28.7c-23,0-37.5,8.5-48.4,28.5c-2.4,4.3-5.1,11-7.7,17.5
		c-2.3,5.7-4.5,11.2-6.5,15c-3.2,6.1-8.4,10.8-14.7,13.3c4,1.4,8.5,1.3,12.5-0.2c0.7-0.2,1.4-0.1,1.9,0.5c0.4,0.5,0.5,1.3,0.1,1.9
		c-2.1,3.3-4.7,6.3-7.5,9c3,0.9,6.3,1,9.4,0.1C49,142.9,49.2,142.9,49.3,142.9z"/>
	<path class="st3" d="M164.9,91.1l-2.7-0.6c0,0,6.1-25.3,7.7-31.9c0.8-3.8,0.4-6.6-1.3-7.6c-1.6-1-4.3-0.3-6.9,1.7l-17,13.2
		c-0.6,0.5-1.5,0.4-1.9-0.2c-0.5-0.6-0.4-1.5,0.2-1.9l17-13.2c3.6-2.8,7.4-3.5,10.1-1.8c1.6,1,4,3.7,2.5,10.6
		C171,65.8,164.9,91.1,164.9,91.1z M54.7,87.4c0,0-5.1-21.3-6.7-27.8c-1.5-6.9,0.9-9.6,2.5-10.6c2.7-1.7,6.4-1,10.1,1.8L76.7,63
		c0.6,0.5,0.7,1.3,0.3,1.9c-0.5,0.6-1.3,0.7-1.9,0.3L58.8,53c-2.6-2-5.3-2.7-6.9-1.7c-1.7,1-2.1,3.8-1.3,7.7
		c1.6,6.5,6.7,27.8,6.7,27.8L54.7,87.4z"/>
	<g>
		<g>
			<circle class="st4" cx="70.6" cy="102.8" r="21.3"/>
			<path class="st3" d="M70.6,125.4c-12.5,0-22.7-10.2-22.7-22.7c0-12.5,10.2-22.7,22.7-22.7s22.7,10.2,22.7,22.7
				C93.3,115.3,83.1,125.4,70.6,125.4z M70.6,82.9c-11,0-19.9,8.9-19.9,19.9c0,11,8.9,19.9,19.9,19.9s19.9-8.9,19.9-19.9
				C90.5,91.8,81.6,82.9,70.6,82.9z"/>
		</g>
		<g>
			<circle class="st3" cx="70.7" cy="102" r="13.1"/>
			<path class="st0" d="M70.7,116.5c-8,0-14.5-6.5-14.5-14.5s6.5-14.5,14.5-14.5S85.2,94,85.2,102S78.7,116.5,70.7,116.5z
				 M70.7,90.3C64.3,90.3,59,95.6,59,102s5.2,11.7,11.7,11.7s11.7-5.2,11.7-11.7S77.1,90.3,70.7,90.3z"/>
		</g>
		<ellipse class="st4" cx="70.5" cy="93.1" rx="6.1" ry="6.1"/>
	</g>
	<path class="st3" d="M146.7,159.8c-3.6-4.3-7.3-8.8-11.1-13.3c-0.7-1.7-1.1-3.9-2.3-5.6c-6-7.9-10.7-16.7-16.3-24.9
		c-3.6-5.2-5.4-11.2-9.5-16.1c-2.7-3.1-3.7-7.6-6.3-10.8c-5.5-6.7-6.5-15.4-11.5-22.3C99.1,77.4,143.2,148.9,146.7,159.8z"/>
	<path class="st3" d="M156.2,145.2c-3-3.4-6.1-6.8-9.6-10.8c1-2.7-1.7-5-3.5-7.3c-4.1-4.9-6.8-10.7-10.5-15.8
		c-5.3-7.4-8.1-16.3-13.8-23.4c-4.3-5.3-4.9-12.2-8.8-17.6C116.2,75,154.2,136.4,156.2,145.2z"/>
	<path class="st3" d="M91.7,103c12.7,13.9,4.8,0.9,12.1,18.2C92,106.7,99.5,120,91.7,103z"/>
	<g>
		<path class="st3" d="M153.5,104.4c-7.1-12.1-14.8-23.9-23.2-35.2c5.9,12.1,12.4,23.9,19.5,35.2H153.5z"/>
		<path class="st3" d="M160.9,120.8c2,2.8,4,5.6,6.2,8.3c-1.5-3.1-3.2-6-4.8-9C161.8,120.3,161.4,120.5,160.9,120.8z"/>
	</g>
	<path class="st0" d="M174.3,112.6C167,89.6,158.6,78,155.8,78c-13.8,0-24.9,11.2-24.9,24.9c0,0.4,0.1,0.8,0.1,1.2l12.4,20.3
		c3.7,2.1,7.9,3.4,12.4,3.4c8.8,0,15.5-4,20.5-10.7C175.1,115.9,174.7,113.8,174.3,112.6z"/>
	<g>
		<path class="st4" d="M153.6,122.3L153.6,122.3c-9.9,0-18-8-18-18h35.9C171.6,114.3,163.6,122.3,153.6,122.3z"/>
	</g>
	<path class="st3" d="M141,102.8c0.1,7.1,5.9,14.4,13.1,14.4s12.9-7.1,13.1-14.2L141,102.8z"/>
	<path class="st3" d="M81.2,137l10.2,8c2.6,2.1,4.2,5.1,4.4,8.5l0,0.8c0.3,5.4,4.7,9.6,10.1,9.6H117c5.4,0,9.8-4.2,10.1-9.6l0-0.8
		c0.2-3.3,1.8-6.4,4.4-8.5l10.2-8l-14.5,3.4l-16.6-9.1l-13.8,9.3L81.2,137z"/>
	<path class="st3" d="M82,135.9c2.5,2,5.6,3.1,8.8,3.1c3.2,0.1,6.4-0.5,9.4-1.7c2.9-1,5.4-2.8,7.3-5.2c0.8-1.1,1.2-2.3,1.2-3.6v-5.2
		c0-1.1,0.9-2,2-2.1c0,0,0,0,0,0c1.1,0,2,0.9,2.1,2v5.2c-0.1,2.1-0.9,4.1-2.3,5.7c-2.5,2.9-5.7,5-9.3,6c-3.3,1.1-6.9,1.5-10.4,1.1
		c-3.6-0.3-7-1.8-9.7-4.2c-0.2-0.3-0.2-0.8,0.2-1c0.2-0.2,0.6-0.2,0.8,0L82,135.9z"/>
	<path class="st3" d="M141.8,137c-2.8,2.3-6.2,3.8-9.8,4.2c-3.6,0.4-7.2,0.1-10.6-1c-3.6-0.9-6.9-2.7-9.6-5.2
		c-1.4-1.4-2.4-3.2-2.8-5.2c-0.1-1-0.1-1.9,0-2.9v-2.5c-0.1-1.1,0.8-2.1,1.9-2.1c0,0,0,0,0,0c1.1,0,2.1,0.8,2.1,2v2.5
		c-0.1,0.7-0.1,1.5,0,2.2c0.2,1.4,0.8,2.7,1.8,3.7c2.1,2.4,4.8,4.2,7.8,5.2c6.1,2.4,13.1,1.7,18.6-1.9c0.3-0.3,0.8-0.3,1.1,0
		c0.2,0.4,0,0.8-0.3,1C141.9,136.9,141.8,137,141.8,137z"/>
	<g>
		<path class="st4" d="M122.5,148.2c0.1-1.3,0.2-2.7,0.3-3.5c-1.5-0.5-2.4-0.9-3.5-1.1c-2.7-0.4-5.5-0.9-8.2-0.8
			c-3,0.1-6.4-0.1-8.9,1.6c-0.2,0.2-1.2-0.1-2-0.2c0,1.3,0,2.6,0,3.9c-3.7-0.5-6.6-3.2-5.7-5.4c0.2-0.5,1.7-1.3,2.3-1.2
			c1.6,0.2,2.3-0.4,3.5-0.8c1.9-0.7,4.1-1.4,6.3-1.5c4.1-0.1,8.2,0.1,12.3,0.4c1.3,0.1,2.7,0.7,3.7,1.2c1,0.5,1.6,0.8,3,0.6
			c2.3-0.3,2.7,0.8,2.8,1.9C128.7,145.4,126,147.6,122.5,148.2z"/>
		<path class="st4" d="M115.8,158.1c-2.6,1.4-6.3,1.4-9.1-0.2c-3.2,1.1-4.3,0.8-5.2-1.5c-0.7-1.7-0.8-3.5,1.2-5.4
			c1.8,2.5,4.3,3.9,8.7,3.9c4.3,0,7-1.1,8.5-3.6c2.7,1.5,2.7,6,0,7C119,158.5,117.5,158.2,115.8,158.1z"/>
	</g>
</g>
</svg>
